<svg id="Layer_1" enable-background="new 0 0 512.001 512.001" height="512" viewBox="0 0 512.001 512.001" width="512" xmlns="http://www.w3.org/2000/svg"><path d="m363.388 0h-214.775c-22.733 0-41.229 18.495-41.229 41.229v429.542c0 22.734 18.495 41.229 41.229 41.229h214.775c22.733 0 41.229-18.495 41.229-41.229v-429.542c0-22.733-18.495-41.229-41.229-41.229zm-214.775 16h214.775c13.911 0 25.229 11.317 25.229 25.229v238.041l-75.859 41.72c-2.557 1.406-4.145 4.092-4.145 7.01v168h-105.225v-168c0-2.917-1.588-5.604-4.145-7.01l-75.858-41.72v-238.041c0-13.911 11.317-25.229 25.228-25.229zm-25.228 454.771v-173.241l64.003 35.201v163.269h-38.775c-13.911 0-25.228-11.317-25.228-25.229zm240.003 25.229h-38.775v-163.27l64.004-35.201v173.241c0 13.913-11.318 25.23-25.229 25.23zm-78.486-235.395c7.515 7.633 11.653 17.737 11.653 28.45 0 22.362-18.193 40.555-40.555 40.555s-40.555-18.193-40.555-40.555c0-10.713 4.139-20.817 11.654-28.451 3.099-3.147 8.164-3.188 11.313-.088 3.148 3.1 3.188 8.165.088 11.313-4.55 4.621-7.056 10.739-7.056 17.225 0 13.54 11.015 24.555 24.555 24.555s24.555-11.015 24.555-24.555c0-6.486-2.506-12.604-7.056-17.226-3.1-3.148-3.06-8.214.089-11.313 3.151-3.098 8.216-3.058 11.315.09zm-28.902 30.201c-4.418 0-8-3.582-8-8v-35.056c0-4.418 3.582-8 8-8s8 3.582 8 8v35.056c0 4.419-3.581 8-8 8zm-68.612-174.432c0-4.418 3.582-8 8-8h121.225c4.418 0 8 3.582 8 8s-3.582 8-8 8h-121.225c-4.418 0-8-3.582-8-8zm0-33.5c0-4.418 3.582-8 8-8h121.225c4.418 0 8 3.582 8 8s-3.582 8-8 8h-121.225c-4.418 0-8-3.582-8-8z"/></svg>