<svg id="Layer_1" height="512" viewBox="0 0 75 75" width="512" xmlns="http://www.w3.org/2000/svg" data-name="Layer 1"><path d="m58.3 20.425a2.987 2.987 0 0 0 -2.98-2.98h-35.635a2.987 2.987 0 0 0 -2.98 2.98v26.175h41.595zm-3.19 22.438a.749.749 0 0 1 -.75.75h-33.725a.755.755 0 0 1 -.75-.75v-21.478a.749.749 0 0 1 .75-.75h33.72a.743.743 0 0 1 .75.75z"/><path d="m61.885 53.405-3.05-5.31h-42.67l-3.05 5.31a2.769 2.769 0 0 0 .01 2.77 2.734 2.734 0 0 0 2.4 1.38h43.95a2.734 2.734 0 0 0 2.4-1.38 2.769 2.769 0 0 0 .01-2.77zm-21.34 2.095h-6.09a.75.75 0 0 1 0-1.5h6.09a.75.75 0 0 1 0 1.5z"/></svg>