<?xml version="1.0" encoding="UTF-8"?>
<svg version="1.1" xmlns="http://www.w3.org/2000/svg" width="600" height="140">
<path d="M0 0 C7.26 0 14.52 0 22 0 C22 18.81 22 37.62 22 57 C31.24 57 40.48 57 50 57 C50 38.19 50 19.38 50 0 C57.26 0 64.52 0 72 0 C72 46.2 72 92.4 72 140 C64.74 140 57.48 140 50 140 C50 118.88 50 97.76 50 76 C40.76 76 31.52 76 22 76 C22 97.12 22 118.24 22 140 C14.74 140 7.48 140 0 140 C0 93.8 0 47.6 0 0 Z " fill="#000000" transform="translate(32,0)"/>
<path d="M0 0 C7.26 0 14.52 0 22 0 C27.56600525 25.26254236 32.49565033 50.64199565 37.42480469 76.03515625 C38.6443136 82.31693128 39.86975618 88.59753315 41.09669304 94.87786102 C42.04637505 99.74309891 42.99260463 104.60900333 43.93780899 109.47511292 C44.38878654 111.79422058 44.84093254 114.11310134 45.29427719 116.43174744 C45.92225715 119.64587277 46.54549098 122.86088271 47.16748047 126.07617188 C47.44788933 127.50343597 47.44788933 127.50343597 47.73396301 128.95953369 C47.90198929 129.83329651 48.07001556 130.70705933 48.24313354 131.6072998 C48.46373601 132.74186237 48.46373601 132.74186237 48.68879509 133.8993454 C49 136 49 136 49 140 C41.74 140 34.48 140 27 140 C26.16434735 135.87545726 25.33137258 131.75040557 24.5 127.625 C24.26152344 126.449375 24.02304688 125.27375 23.77734375 124.0625 C23.55175781 122.94101563 23.32617188 121.81953125 23.09375 120.6640625 C22.88427734 119.62717285 22.67480469 118.5902832 22.45898438 117.52197266 C22 115 22 115 22 113 C14.74 113.33 7.48 113.66 0 114 C-1.65 122.58 -3.3 131.16 -5 140 C-12.26 140 -19.52 140 -27 140 C-25.87497275 128.7497275 -25.87497275 128.7497275 -24.93737793 123.95153809 C-24.72709457 122.86367004 -24.51681122 121.775802 -24.30015564 120.65496826 C-24.0715535 119.49716858 -23.84295135 118.3393689 -23.60742188 117.14648438 C-23.36504288 115.89977966 -23.12266388 114.65307495 -22.87294006 113.36859131 C-22.21393843 109.97989523 -21.54925317 106.59233784 -20.88331032 103.20499992 C-20.18547856 99.65112085 -19.49243234 96.09630827 -18.79870605 92.54162598 C-17.63509515 86.58311483 -16.4678614 80.62532241 -15.29833984 74.66796875 C-13.94584527 67.77839097 -12.59870667 60.88778261 -11.25447989 53.99658728 C-9.95925744 47.35706956 -8.66071158 40.71820635 -7.36048889 34.07966614 C-6.80766439 31.25693678 -6.25593394 28.43399683 -5.70506287 25.61088562 C-4.9376859 21.67936125 -4.1654106 17.74881497 -3.39257812 13.81835938 C-3.16397598 12.64436584 -2.93537384 11.47037231 -2.69984436 10.26080322 C-2.489561 9.19549377 -2.27927765 8.13018433 -2.06262207 7.03259277 C-1.88048409 6.10350853 -1.6983461 5.17442429 -1.51068878 4.21718597 C-1 2 -1 2 0 0 Z M10 58 C9.13946081 62.32214962 8.28516227 66.64547271 7.43652344 70.9699707 C7.14720406 72.43970667 6.85620804 73.90911365 6.56347656 75.37817383 C6.1420242 77.49475347 5.72669614 79.61245872 5.3125 81.73046875 C5.06113281 83.00301514 4.80976563 84.27556152 4.55078125 85.58666992 C3.86724895 89.24644467 3.86724895 89.24644467 4 94 C8.62 94 13.24 94 18 94 C17.2782975 86.40996019 15.98920152 78.98706338 14.5625 71.5 C14.34529297 70.30890625 14.12808594 69.1178125 13.90429688 67.890625 C13.68966797 66.76140625 13.47503906 65.6321875 13.25390625 64.46875 C13.06127197 63.44201172 12.8686377 62.41527344 12.67016602 61.35742188 C12.44901123 60.57947266 12.22785645 59.80152344 12 59 C11.34 58.67 10.68 58.34 10 58 Z " fill="#000000" transform="translate(142,0)"/>
<path d="M0 0 C7.26 0 14.52 0 22 0 C24.39853208 9.21690176 26.34618522 18.47852536 28.13671875 27.828125 C28.42360872 29.31318588 28.71078956 30.7981906 28.99824524 32.28314209 C29.74581685 36.14908558 30.48949466 40.01576765 31.2322998 43.88262939 C31.99426369 47.8453933 32.75999649 51.80742873 33.52539062 55.76953125 C35.02056868 63.51232193 36.51162448 71.25589882 38 79 C39.56297785 74.61125966 40.622432 70.29945328 41.49633789 65.7253418 C41.63157364 65.02381485 41.76680939 64.3222879 41.90614319 63.59950256 C42.1971068 62.08737287 42.48621427 60.57488506 42.77363777 59.06207848 C43.22812807 56.67042452 43.68768346 54.27979253 44.14854431 51.88935852 C45.1243787 46.82293371 46.09383389 41.75529949 47.0625 36.6875 C48.18860859 30.79703246 49.31730708 24.90708405 50.45245171 19.0183506 C50.90597515 16.65847482 51.35480984 14.29773762 51.80348206 11.93693542 C52.07978085 10.5004753 52.35629381 9.06405634 52.63305664 7.62768555 C52.87351212 6.36893112 53.11396759 5.1101767 53.36170959 3.8132782 C54 1 54 1 55 0 C56.63472882 -0.08700342 58.27314055 -0.10701063 59.91015625 -0.09765625 C61.39418945 -0.09282227 61.39418945 -0.09282227 62.90820312 -0.08789062 C63.94912109 -0.07951172 64.99003906 -0.07113281 66.0625 -0.0625 C67.62967773 -0.05573242 67.62967773 -0.05573242 69.22851562 -0.04882812 C71.8190666 -0.03699913 74.40950559 -0.02051689 77 0 C74.51327713 12.80779762 72.02649912 25.61558453 69.53965664 38.42335892 C68.38407827 44.374845 67.22851671 50.32633435 66.07299805 56.27783203 C65.84999716 57.42637413 65.62699627 58.57491623 65.39723778 59.75826263 C64.94930572 62.06535073 64.50140043 64.37244402 64.05352211 66.67954254 C62.94981942 72.36459742 61.84555354 78.04954177 60.74008179 83.73425293 C58.93152271 93.03653008 57.12362581 102.33886455 55.34036541 111.64603043 C54.68313842 115.07582443 54.02339845 118.50513278 53.36348152 121.9344101 C53.06395979 123.49534135 52.76583169 125.05654075 52.46917534 126.6180191 C52.0701432 128.71834027 51.66659401 130.81774378 51.26196289 132.91699219 C51.04037003 134.07785339 50.81877716 135.2387146 50.59046936 136.43475342 C50 139 50 139 49 140 C47.36527118 140.08700342 45.72685945 140.10701063 44.08984375 140.09765625 C43.10048828 140.09443359 42.11113281 140.09121094 41.09179688 140.08789062 C40.05087891 140.07951172 39.00996094 140.07113281 37.9375 140.0625 C36.89271484 140.05798828 35.84792969 140.05347656 34.77148438 140.04882812 C32.1809334 140.03699913 29.59049441 140.02051689 27 140 C23.47735154 122.04202332 19.9568471 104.08362774 16.43891144 86.12472725 C14.80551191 77.78656391 13.17140468 69.44854043 11.53564453 61.11083984 C10.11031875 53.84574354 8.68630739 46.58039108 7.26388979 39.3147248 C6.5103264 35.46579133 5.75609461 31.61699151 5.00028992 27.76849747 C4.28951594 24.14918643 3.58049453 20.52953657 2.87283897 16.90961456 C2.48764498 14.94166132 2.10057282 12.97407599 1.7134552 11.00650024 C1.48627304 9.84259766 1.25909088 8.67869507 1.02502441 7.47952271 C0.82591713 6.46370684 0.62680984 5.44789097 0.42166901 4.4012928 C0 2 0 2 0 0 Z " fill="#000000" transform="translate(202,0)"/>
<path d="M0 0 C19.14 0 38.28 0 58 0 C58 6.27 58 12.54 58 19 C45.79 19 33.58 19 21 19 C21 31.54 21 44.08 21 57 C31.56 57 42.12 57 53 57 C53 63.27 53 69.54 53 76 C42.44 76 31.88 76 21 76 C21 90.85 21 105.7 21 121 C33.21 121 45.42 121 58 121 C58 127.27 58 133.54 58 140 C38.86 140 19.72 140 0 140 C0 93.8 0 47.6 0 0 Z " fill="#000000" transform="translate(290,0)"/>
<path d="M0 0 C6.93 0 13.86 0 21 0 C21 28.05 21 56.1 21 85 C14.07 85 7.14 85 0 85 C0 56.95 0 28.9 0 0 Z " fill="#C81E23" transform="translate(0,55)"/>
<path d="M0 0 C15.77167514 -0.20054405 15.77167514 -0.20054405 22.50585938 -0.24414062 C27.0972185 -0.27400579 31.68807805 -0.30929611 36.27905273 -0.37719727 C39.98141252 -0.43161164 43.68323649 -0.46143983 47.38596535 -0.47438622 C48.79699958 -0.48360947 50.20800518 -0.50162116 51.61881065 -0.52865028 C53.59803933 -0.56505405 55.5778097 -0.56704333 57.55737305 -0.56762695 C58.68322311 -0.57873001 59.80907318 -0.58983307 60.96903992 -0.60127258 C64.93872867 0.18622212 66.4150007 1.97553238 69 5 C69.495 5.495 69.495 5.495 70 6 C70.07271741 8.35313555 70.08370868 10.70833668 70.0625 13.0625 C70.05347656 14.35285156 70.04445313 15.64320312 70.03515625 16.97265625 C70.02355469 17.97167969 70.01195312 18.97070312 70 20 C53.64432779 20.1593085 37.34129019 19.67055824 21 19 C21.03697998 19.60400635 21.07395996 20.2080127 21.11206055 20.83032227 C21.3482793 27.39879164 21.3482793 27.39879164 19.64453125 30.33984375 C12.62584205 36.46061962 9.99905963 37 0 37 C0 24.79 0 12.58 0 0 Z " fill="#C81E23" transform="translate(446,0)"/>
<path d="M0 0 C6.93 0 13.86 0 21 0 C21 2.31 21 4.62 21 7 C29.91 7 38.82 7 48 7 C48 4.69 48 2.38 48 0 C60.01595596 -0.48063824 60.01595596 -0.48063824 64.921875 3.59765625 C68.33221725 7.02846056 70.46457809 9.7501924 70.6875 14.6875 C70.33788804 18.82576404 69.10854696 21.15049862 66 24 C62.81666269 25.95809819 60.38018256 26.25637343 56.66821289 26.2746582 C55.07119286 26.28895622 55.07119286 26.28895622 53.44190979 26.30354309 C52.29705612 26.30263168 51.15220245 26.30172028 49.97265625 26.30078125 C48.79158798 26.30506638 47.61051971 26.3093515 46.3936615 26.31376648 C43.89631796 26.31950864 41.3989577 26.32001089 38.90161133 26.31567383 C35.08060168 26.31251496 31.26036698 26.33597189 27.43945312 26.36132812 C25.01302181 26.36360122 22.58658841 26.36430457 20.16015625 26.36328125 C19.01732681 26.372491 17.87449738 26.38170074 16.69703674 26.39118958 C15.62920456 26.38496078 14.56137238 26.37873199 13.46118164 26.37231445 C12.05697716 26.37325859 12.05697716 26.37325859 10.62440491 26.3742218 C6.73046755 25.81897354 4.11589569 23.97792161 1.19921875 21.421875 C-0.74163192 17.50224173 -0.31041884 13.5503466 -0.1875 9.25 C-0.0946875 4.67125 -0.0946875 4.67125 0 0 Z " fill="#C81E23" transform="translate(362,114)"/>
<path d="M0 0 C1.1446875 -0.01583633 2.289375 -0.03167267 3.46875 -0.04798889 C5.30953125 -0.04054909 5.30953125 -0.04054909 7.1875 -0.03295898 C8.4559375 -0.03915756 9.724375 -0.04535614 11.03125 -0.05174255 C13.7114989 -0.05884259 16.39024516 -0.05761212 19.0703125 -0.04296875 C22.49720286 -0.02577325 25.92241764 -0.04929048 29.34912109 -0.08445835 C32.62860051 -0.11175122 35.90793907 -0.10169513 39.1875 -0.09545898 C41.02828125 -0.1153463 41.02828125 -0.1153463 42.90625 -0.13563538 C52.36401094 -0.03208295 52.36401094 -0.03208295 55.4375 2.94775391 C58.18894342 7.01311903 58.30655695 9.15034888 58.28515625 14.07250977 C58.28032227 16.02543945 58.28032227 16.02543945 58.27539062 18.01782227 C58.26703466 19.39803125 58.25856971 20.77823959 58.25 22.15844727 C58.24498501 23.54646652 58.2404221 24.93448749 58.23632812 26.32250977 C58.22450976 29.72619859 58.20803434 33.12980165 58.1875 36.53344727 C54.76601142 38.24419156 50.95811317 37.76009982 47.1875 37.78344727 C46.35476563 37.80407227 45.52203125 37.82469727 44.6640625 37.84594727 C43.46910156 37.85368164 43.46910156 37.85368164 42.25 37.86157227 C41.15365234 37.87559082 41.15365234 37.87559082 40.03515625 37.88989258 C39.42542969 37.77226563 38.81570313 37.65463867 38.1875 37.53344727 C35.73358431 33.85257374 35.95947241 31.08989138 36.0625 26.84594727 C36.07152344 26.14405273 36.08054687 25.4421582 36.08984375 24.71899414 C36.11336296 22.99033201 36.14923287 21.26184581 36.1875 19.53344727 C35.053125 19.63786133 33.91875 19.74227539 32.75 19.84985352 C23.40931484 20.44856217 23.40931484 20.44856217 19.1875 19.53344727 C17.0859375 17.56469727 17.0859375 17.56469727 15.5625 15.09594727 C13.57094366 12.11328776 12.1793536 10.73650689 8.62597656 10.0090332 C1.82997134 9.34413505 -4.9912812 9.35804929 -11.8125 9.53344727 C-11.53030402 6.14709547 -11.0932875 4.80794956 -8.625 2.39491272 C-5.4140252 0.26971497 -3.80815613 0.0235069 0 0 Z " fill="#C81E23" transform="translate(373.8125,-0.533447265625)"/>
<path d="M0 0 C6.93 0 13.86 0 21 0 C21 21.78 21 43.56 21 66 C14.07 66 7.14 66 0 66 C0 57.75 0 49.5 0 41 C1.98 41 3.96 41 6 41 C6.33 41.99 6.66 42.98 7 44 C8.98 44 10.96 44 13 44 C13 42.35 13 40.7 13 39 C10.60280568 38.32041397 10.60280568 38.32041397 8 38 C7.34 38.66 6.68 39.32 6 40 C4.02 40 2.04 40 0 40 C0 26.8 0 13.6 0 0 Z " fill="#C81E23" transform="translate(579,38)"/>
<path d="M0 0 C6.93 0 13.86 0 21 0 C21 5.61 21 11.22 21 17 C22.85625 16.9071875 24.7125 16.814375 26.625 16.71875 C29.08326877 16.64368836 31.54160741 16.57089083 34 16.5 C35.22074219 16.43296875 36.44148438 16.3659375 37.69921875 16.296875 C46.78958409 16.10032656 46.78958409 16.10032656 50.39648438 18.78125 C51.71186015 20.21295152 52.99453656 21.67557191 54.23828125 23.16992188 C56.04934342 25.37029388 56.04934342 25.37029388 59.84375 26 C61.0503125 26 62.256875 26 63.5 26 C64.7271875 26.020625 65.954375 26.04125 67.21875 26.0625 C68.1365625 26.041875 69.054375 26.02125 70 26 C70.296875 30.65625 70.296875 30.65625 67.625 33.75 C62.3166802 38.2999884 56.24401449 37.40585142 49.56176758 37.51489258 C48.07077373 37.54645057 46.5800278 37.59412272 45.09008789 37.65844727 C32.70749743 38.18533674 32.70749743 38.18533674 28.52270508 35.28027344 C26.77380981 33.27064047 25.39900246 31.26041257 24 29 C23.04946489 28.01326136 22.07268842 27.05057523 21.0625 26.125 C19 24 19 24 19 22 C12.73 22 6.46 22 0 22 C0 14.74 0 7.48 0 0 Z " fill="#C81E23" transform="translate(446,53)"/>
<path d="M0 0 C6.93 0 13.86 0 21 0 C21 17.82 21 35.64 21 54 C8 54 8 54 3.23632812 50.67773438 C-0.87540628 45.75499208 -1.04710843 41.36903733 -0.78125 35.15625 C-0.76993042 34.14655151 -0.75861084 33.13685303 -0.74694824 32.09655762 C-0.70243522 28.89571183 -0.60212111 25.69947357 -0.5 22.5 C-0.45984054 20.32037755 -0.42334411 18.14068434 -0.390625 15.9609375 C-0.30959788 10.63745591 -0.15308151 5.32383477 0 0 Z " fill="#C81E23" transform="translate(495,24)"/>
<path d="M0 0 C17 0 17 0 22.5625 4.375 C26 8.46880907 26 8.46880907 26 11 C24.35 11 22.7 11 21 11 C21 23.21 21 35.42 21 48 C14.07 48 7.14 48 0 48 C0 32.16 0 16.32 0 0 Z " fill="#C81E23" transform="translate(446,79)"/>
<path d="M0 0 C7.26 0 14.52 0 22 0 C22 3.96 22 7.92 22 12 C30.91 12 39.82 12 49 12 C49 8.04 49 4.08 49 0 C55.93 0 62.86 0 70 0 C70 7.66803322 69.48423314 9.70376469 64.38720703 14.97558594 C56.84973963 19.4804641 47.42528466 17.98963694 38.9375 17.625 C36.90701055 17.57478447 34.87640187 17.5291667 32.84570312 17.48828125 C27.89417058 17.37862618 22.94840514 17.20640848 18 17 C18 16.34 18 15.68 18 15 C16.02 15 14.04 15 12 15 C11.79375 15.86625 11.5875 16.7325 11.375 17.625 C9.60514665 21.9691855 7.51900236 23.92087294 4 27 C3.34 27 2.68 27 2 27 C0.06290362 23.74246076 -0.23715445 21.34390072 -0.1953125 17.578125 C-0.18564453 16.04091797 -0.18564453 16.04091797 -0.17578125 14.47265625 C-0.15902344 13.40917969 -0.14226563 12.34570312 -0.125 11.25 C-0.11597656 10.17105469 -0.10695313 9.09210938 -0.09765625 7.98046875 C-0.0741142 5.32021751 -0.03824397 2.66008051 0 0 Z " fill="#C81E23" transform="translate(530,109)"/>
<path d="M0 0 C6.93 0 13.86 0 21 0 C21 12.54 21 25.08 21 38 C14.07 38 7.14 38 0 38 C0 25.46 0 12.92 0 0 Z " fill="#C81E23" transform="translate(0,0)"/>
<path d="M0 0 C7.26 0 14.52 0 22 0 C23.0738433 17.89738831 23.0738433 17.89738831 20.41796875 23.09765625 C18.08765628 25.61271421 15.60796726 27.77448604 13 30 C10.77785937 32.32532121 8.64380089 34.72756542 6.5 37.125 C4.69379603 39.11496511 2.86725609 41.0660562 1 43 C0.67 43 0.34 43 0 43 C0 28.81 0 14.62 0 0 Z " fill="#C81E23" transform="translate(530,24)"/>
<path d="M0 0 C1.32 0.33 2.64 0.66 4 1 C4 1.66 4 2.32 4 3 C5.04285156 3.0928125 6.08570313 3.185625 7.16015625 3.28125 C12.57695172 4.29517713 15.21134274 6.24230768 19.01953125 10.1484375 C24.05827477 17.86256131 21.59803551 30.29526086 21 39 C14.07 39 7.14 39 0 39 C0 26.13 0 13.26 0 0 Z " fill="#C81E23" transform="translate(362,36)"/>
<path d="M0 0 C0.33 0 0.66 0 1 0 C1.86073185 11.82071747 1.86073185 11.82071747 -1.3125 15.6875 C-5.02610282 18.88292568 -7.56501021 19.12455709 -12.29760742 19.11352539 C-13.37850143 19.11344986 -14.45939545 19.11337433 -15.57304382 19.11329651 C-16.73874405 19.10813522 -17.90444427 19.10297394 -19.10546875 19.09765625 C-20.29981033 19.0962413 -21.49415192 19.09482635 -22.72468567 19.09336853 C-26.54564908 19.0877635 -30.36655425 19.07521011 -34.1875 19.0625 C-36.77538978 19.05748565 -39.36328048 19.05292263 -41.95117188 19.04882812 C-48.30080118 19.03779243 -54.65039643 19.02104936 -61 19 C-61.33 18.34 -61.66 17.68 -62 17 C-61.11687962 15.86499306 -60.21781145 14.74238693 -59.3125 13.625 C-58.81363281 12.99851563 -58.31476562 12.37203125 -57.80078125 11.7265625 C-52.97541318 7.10007077 -47.13301436 7.76275974 -40.87890625 7.83203125 C-38.87174004 7.82635495 -36.86457769 7.81914633 -34.85742188 7.81054688 C-31.70581235 7.8063693 -28.55550689 7.81257297 -25.40405273 7.84545898 C-22.35308985 7.87239537 -19.30484255 7.85556654 -16.25390625 7.83203125 C-14.84740562 7.86282524 -14.84740562 7.86282524 -13.41249084 7.89424133 C-8.33738109 7.85409909 -8.33738109 7.85409909 -4.06637573 5.38607788 C-2.59299936 3.64992957 -1.3026581 1.86401056 0 0 Z " fill="#C81E23" transform="translate(599,121)"/>
<path d="M0 0 C6.93 0 13.86 0 21 0 C21 10.23 21 20.46 21 31 C14.07 31 7.14 31 0 31 C0 20.77 0 10.54 0 0 Z " fill="#C81E23" transform="translate(362,79)"/>
<path d="M0 0 C6.93 0 13.86 0 21 0 C21 11.22 21 22.44 21 34 C14.07 34 7.14 34 0 34 C0 30.7 0 27.4 0 24 C2.97 24 5.94 24 9 24 C9.33 24.66 9.66 25.32 10 26 C12.9737344 27.09036928 13.88407501 27.03864166 17 26 C17.67801034 23.09926819 17.67801034 23.09926819 18 20 C16.17296773 17.7508092 16.17296773 17.7508092 13.5 17.75 C10.82703227 17.7508092 10.82703227 17.7508092 9 20 C6.03 20 3.06 20 0 20 C0 13.4 0 6.8 0 0 Z " fill="#C81E23" transform="translate(579,0)"/>
<path d="M0 0 C7.26 0 14.52 0 22 0 C22 8.25 22 16.5 22 25 C14.74 25 7.48 25 0 25 C0 16.75 0 8.5 0 0 Z " fill="#C81E23" transform="translate(530,79)"/>
<path d="M0 0 C5.3521875 -0.12375 5.3521875 -0.12375 10.8125 -0.25 C12.49436401 -0.30462402 12.49436401 -0.30462402 14.21020508 -0.36035156 C15.53894653 -0.37533691 15.53894653 -0.37533691 16.89453125 -0.390625 C17.80050049 -0.41157227 18.70646973 -0.43251953 19.63989258 -0.45410156 C22 0 22 0 23.8190918 1.89941406 C25 4 25 4 25 6 C23.68 6 22.36 6 21 6 C21 15.57 21 25.14 21 35 C12.47826087 27.69565217 12.47826087 27.69565217 11 25 C10.875 22.3125 10.875 22.3125 11 20 C9.94570314 18.73527935 9.94570314 18.73527935 7.5625 18.75 C6.2940625 18.87375 6.2940625 18.87375 5 19 C4.34 19.99 3.68 20.98 3 22 C2.01 22 1.02 22 0 22 C0 14.74 0 7.48 0 0 Z " fill="#C81E23" transform="translate(362,13)"/>
<path d="M0 0 C7.26 0 14.52 0 22 0 C22 6.6 22 13.2 22 20 C14.74 20 7.48 20 0 20 C0 13.4 0 6.8 0 0 Z " fill="#C81E23" transform="translate(530,0)"/>
<path d="M0 0 C7.26 0 14.52 0 22 0 C22 8.58 22 17.16 22 26 C21.34 26 20.68 26 20 26 C17.50181056 23.18953688 15.5277867 20.43752007 14 17 C13.0409375 17.2475 13.0409375 17.2475 12.0625 17.5 C9 18 9 18 0 18 C0 12.06 0 6.12 0 0 Z " fill="#C81E23" transform="translate(410,92)"/>
<path d="M0 0 C0.66 0 1.32 0 2 0 C2 8.91 2 17.82 2 27 C-5.26 27 -12.52 27 -20 27 C-18.96817857 19.77725002 -18.8113411 19.08860022 -13.875 14.5625 C-9.29203837 10.25412806 -5.07330351 5.79061482 -1 1 C-0.67 0.67 -0.34 0.34 0 0 Z " fill="#C81E23" transform="translate(550,51)"/>
<path d="M0 0 C0.33 0 0.66 0 1 0 C1 6.27 1 12.54 1 19 C-5.93 19 -12.86 19 -20 19 C-20 15.04 -20 11.08 -20 7 C-13.06640625 6.90234375 -13.06640625 6.90234375 -11 7 C-10.67 7.33 -10.34 7.66 -10 8 C-8.33382885 8.04063832 -6.66611905 8.042721 -5 8 C-4.54625 7.05125 -4.0925 6.1025 -3.625 5.125 C-2 2 -2 2 0 0 Z " fill="#C81E23" transform="translate(466,33)"/>
<path d="M0 0 C6.93 0 13.86 0 21 0 C21 2.97 21 5.94 21 9 C14.07 9 7.14 9 0 9 C0 6.03 0 3.06 0 0 Z " fill="#C81E23" transform="translate(446,131)"/>
<path d="M0 0 C7.26 0 14.52 0 22 0 C22 1.65 22 3.3 22 5 C14.74 5 7.48 5 0 5 C0 3.35 0 1.7 0 0 Z " fill="#C81E23" transform="translate(410,41)"/>
</svg>
