<?xml version="1.0" encoding="UTF-8"?>
<svg id="Layer_2" data-name="Layer 2" xmlns="http://www.w3.org/2000/svg" viewBox="0 0 943.8 222.07">
  <defs>
    <style>
      .cls-1 {
        fill: #fff;
      }

      .cls-2 {
        fill: #dc1f26;
      }
    </style>
  </defs>
  <g id="Layer_1-2" data-name="Layer 1">
    <g>
      <rect class="cls-2" y="93.63" width="33.03" height="128.1"/>
      <rect class="cls-2" width="33.03" height="59.98"/>
      <g>
        <polygon class="cls-1" points="131.19 91.73 85.51 91.73 85.51 0 52.48 0 52.48 221.73 85.51 221.73 85.51 122.76 131.19 122.76 131.19 221.73 164.21 221.73 164.21 0 131.19 0 131.19 91.73"/>
        <path class="cls-1" d="m253.11,0h-25.14l-42.78,221.73h32.5l6.66-41.7h42.19l6.66,41.7h32.5L262.93,0h-9.81Zm-24.19,151.44l16.53-103.47,16.53,103.47h-33.05Z"/>
        <polygon class="cls-1" points="376.58 137.81 349.76 .34 316.74 .34 359.99 222.07 360.14 222.07 393.02 222.07 393.17 222.07 436.42 .34 403.4 .34 376.58 137.81"/>
        <polygon class="cls-1" points="546.05 29.04 546.05 0 487.72 0 477.89 0 454.69 0 454.69 221.73 477.89 221.73 487.72 221.73 546.05 221.73 546.05 192.69 487.72 192.69 487.72 122.76 537.87 122.76 537.87 94.99 487.72 94.99 487.72 29.04 546.05 29.04"/>
      </g>
      <g>
        <path class="cls-2" d="m604.03,13.9l14.73,15.14h25.08v23.68c0,2.62,2.12,4.75,4.75,4.75h23.53c2.62,0,4.75-2.12,4.75-4.75V13.03h-.33c-1.51-7.43-8.08-13.03-15.96-13.03h-77.12c-8.18,0-14.95,6.04-16.11,13.9h36.68Z"/>
        <rect class="cls-2" x="643.84" y="65.35" width="33.03" height="7.66"/>
        <path class="cls-2" d="m676.86,196.72v10.49h-.07c-.76,8.29-7.72,14.79-16.21,14.79h-77.12c-8.99,0-16.28-7.29-16.28-16.29v-23.59h33.02v10.84h43.64v-11.24h11.57c.78,3.27,3.71,5.69,7.21,5.69,1.38,0,2.68-.38,3.79-1.04l10.45,10.35Z"/>
        <rect class="cls-2" x="567.18" y="125.58" width="33.03" height="49.19"/>
        <path class="cls-2" d="m676.86,147.23v39.13l-6.83-6.77c-.21-3.91-3.44-7.02-7.41-7.02-1.84,0-3.53.67-4.83,1.78h-13.96v-27.13h33.02Z"/>
        <g>
          <path class="cls-2" d="m583.36,63.87c-1.25.76-2.7,1.2-4.26,1.2-4.1,0-7.5-3-8.13-6.93h-3.79v60.08h33.03v-37l-16.85-17.34Z"/>
          <path class="cls-2" d="m571.2,54.46c1.02-3.4,4.17-5.88,7.89-5.88,4.55,0,8.24,3.69,8.24,8.24,0,1.66-.49,3.2-1.33,4.49l14.2,14.62V29.04h7.55l-7.06-7.25h-33.52v32.67h4.02Z"/>
        </g>
      </g>
      <g>
        <polygon class="cls-2" points="777.65 105.26 794.71 122.88 810.94 122.88 810.94 39.23 777.65 39.23 777.65 105.26"/>
        <path class="cls-2" d="m720.39,67.54c-2.36,0-4.46-1.1-5.83-2.81h-11.81v16.22h33.03v-27.94l-7.96,6.31c.03.25.04.5.04.76,0,4.12-3.34,7.46-7.46,7.46Z"/>
        <polygon class="cls-2" points="726.9 126.48 702.75 126.48 702.75 201.37 735.78 201.37 735.78 142.21 742.14 142.21 726.9 126.48"/>
        <path class="cls-2" d="m810.78,127.62h-18.08l-15.05-15.56v1.11h-41.87v-27.49h-33.03v32.91h27.49l22.88,23.62h40.93c8.55,0,15.61-6.35,16.73-14.6Z"/>
        <rect class="cls-2" x="702.75" y="209.26" width="33.03" height="12.48"/>
        <path class="cls-2" d="m713.67,56.85c1.21-2.5,3.76-4.23,6.72-4.23.91,0,1.78.17,2.59.47l12.79-10.14v-13.91h41.87v2.3h33.29v-14.85c0-9.11-7.38-16.49-16.49-16.49h-91.7v56.85h10.92Z"/>
      </g>
      <g>
        <path class="cls-2" d="m910.77,193.03h-44.87v-19.26h-33.03v31.4c0,4.31,1.61,8.24,4.27,11.22l12.02-12.28c-.05-.33-.08-.66-.08-.99,0-3.87,3.14-7.01,7.01-7.01,2.16,0,4.09.98,5.37,2.51h68.24l14.09-13.74v-11.11h-33.03v19.26Z"/>
        <polygon class="cls-2" points="832.88 116.94 832.88 123.82 865.9 123.82 865.9 80.85 832.88 116.94"/>
        <path class="cls-2" d="m910.77,123.82h8.39c.42-3.47,3.37-6.16,6.95-6.16,3.87,0,7.01,3.14,7.01,7.01s-3.14,7.01-7.01,7.01c-2.86,0-5.32-1.72-6.41-4.18h-8.94v38.39h33.03V62.27h-33.03v61.55Z"/>
        <rect class="cls-2" x="832.88" y="127.5" width="33.03" height="38.39"/>
        <polygon class="cls-2" points="832.88 105.26 865.9 69.17 865.9 39.36 832.88 39.36 832.88 105.26"/>
        <path class="cls-2" d="m932.92,206.51h-70.68c-1.19,2.16-3.49,3.62-6.14,3.62-.55,0-1.08-.07-1.6-.19l-10.78,11.01c1.88.72,3.92,1.12,6.06,1.12h78.02c8.83,0,16-7.16,16-16v-10.18l-10.88,10.61Z"/>
        <rect class="cls-2" x="832.88" y=".34" width="33.03" height="31.13"/>
        <path class="cls-2" d="m923.79,31.47c1.59-2.94,4.7-4.94,8.29-4.94,5.2,0,9.41,4.21,9.41,9.41s-4.21,9.41-9.41,9.41c-3.99,0-7.4-2.49-8.76-6h-12.54v15.02h33.03V.34h-33.03v31.13h13.02Z"/>
      </g>
    </g>
  </g>
</svg>