<?xml version="1.0" encoding="UTF-8" standalone="no"?>
<!-- Created with Inkscape (http://www.inkscape.org/) -->

<svg
   version="1.1"
   id="svg4182"
   xml:space="preserve"
   width="682.66669"
   height="682.66669"
   viewBox="0 0 682.66669 682.66669"
   xmlns="http://www.w3.org/2000/svg"
   xmlns:svg="http://www.w3.org/2000/svg"><defs
     id="defs4186"><clipPath
       clipPathUnits="userSpaceOnUse"
       id="clipPath4196"><path
         d="M 0,512 H 512 V 0 H 0 Z"
         id="path4194" /></clipPath></defs><g
     id="g4188"
     transform="matrix(1.3333333,0,0,-1.3333333,0,682.66667)"><g
       id="g4190"><g
         id="g4192"
         clip-path="url(#clipPath4196)"><g
           id="g4198"
           transform="translate(225.1998,411.982)"><path
             d="m 0,0 h -158.422 v 16.746 c 0,4.371 3.543,7.914 7.914,7.914 H -7.913 C -3.543,24.66 0,21.117 0,16.746 Z"
             style="fill:none;stroke:#000000;stroke-width:15;stroke-linecap:round;stroke-linejoin:round;stroke-miterlimit:10;stroke-dasharray:none;stroke-opacity:1"
             id="path4200" /></g><g
           id="g4202"
           transform="translate(172.0807,436.6421)"><path
             d="m 0,0 v 24.881 c 0,5.472 4.437,9.908 9.908,9.908 h 203.14 c 5.472,0 9.908,-4.436 9.908,-9.908 v -180.774"
             style="fill:none;stroke:#000000;stroke-width:15;stroke-linecap:round;stroke-linejoin:round;stroke-miterlimit:10;stroke-dasharray:none;stroke-opacity:1"
             id="path4204" /></g><g
           id="g4206"
           transform="translate(122.3649,436.6421)"><path
             d="m 0,0 v 40.667 c 0,15.018 12.174,27.19 27.19,27.19 h 244.129 c 13.51,0 24.461,-10.951 24.461,-24.461 v -199.289"
             style="fill:none;stroke:#000000;stroke-width:15;stroke-linecap:round;stroke-linejoin:round;stroke-miterlimit:10;stroke-dasharray:none;stroke-opacity:1"
             id="path4208" /></g><g
           id="g4210"
           transform="translate(217.945,303.8228)"><path
             d="m 0,0 c 0,-39.74 -32.216,-71.956 -71.956,-71.956 -39.739,0 -71.955,32.216 -71.955,71.956 0,39.739 32.216,71.955 71.955,71.955 C -32.216,71.955 0,39.739 0,0 Z"
             style="fill:none;stroke:#000000;stroke-width:15;stroke-linecap:round;stroke-linejoin:round;stroke-miterlimit:10;stroke-dasharray:none;stroke-opacity:1"
             id="path4212" /></g><g
           id="g4214"
           transform="translate(164.1598,303.8228)"><path
             d="m 0,0 c 0,-10.036 -8.135,-18.171 -18.171,-18.171 -10.035,0 -18.171,8.135 -18.171,18.171 0,10.035 8.136,18.171 18.171,18.171 C -8.135,18.171 0,10.035 0,0 Z"
             style="fill:none;stroke:#000000;stroke-width:15;stroke-linecap:round;stroke-linejoin:round;stroke-miterlimit:10;stroke-dasharray:none;stroke-opacity:1"
             id="path4216" /></g><g
           id="g4218"
           transform="translate(145.9889,321.9937)"><path
             d="M 0,0 C 0,0 -17.03,27.755 0,53.784"
             style="fill:none;stroke:#000000;stroke-width:15;stroke-linecap:round;stroke-linejoin:round;stroke-miterlimit:10;stroke-dasharray:none;stroke-opacity:1"
             id="path4220" /></g><g
           id="g4222"
           transform="translate(158.8385,316.6714)"><path
             d="M 0,0 C 0,0 7.583,31.669 38.031,38.031"
             style="fill:none;stroke:#000000;stroke-width:15;stroke-linecap:round;stroke-linejoin:round;stroke-miterlimit:10;stroke-dasharray:none;stroke-opacity:1"
             id="path4224" /></g><g
           id="g4226"
           transform="translate(164.1598,303.8228)"><path
             d="M 0,0 C 0,0 27.756,17.03 53.785,0"
             style="fill:none;stroke:#000000;stroke-width:15;stroke-linecap:round;stroke-linejoin:round;stroke-miterlimit:10;stroke-dasharray:none;stroke-opacity:1"
             id="path4228" /></g><g
           id="g4230"
           transform="translate(158.8385,290.9732)"><path
             d="M 0,0 C 0,0 31.668,-7.583 38.031,-38.031"
             style="fill:none;stroke:#000000;stroke-width:15;stroke-linecap:round;stroke-linejoin:round;stroke-miterlimit:10;stroke-dasharray:none;stroke-opacity:1"
             id="path4232" /></g><g
           id="g4234"
           transform="translate(145.9889,285.6519)"><path
             d="M 0,0 C 0,0 17.031,-27.756 0,-53.785"
             style="fill:none;stroke:#000000;stroke-width:15;stroke-linecap:round;stroke-linejoin:round;stroke-miterlimit:10;stroke-dasharray:none;stroke-opacity:1"
             id="path4236" /></g><g
           id="g4238"
           transform="translate(133.1403,290.9732)"><path
             d="M 0,0 C 0,0 -7.583,-31.668 -38.031,-38.031"
             style="fill:none;stroke:#000000;stroke-width:15;stroke-linecap:round;stroke-linejoin:round;stroke-miterlimit:10;stroke-dasharray:none;stroke-opacity:1"
             id="path4240" /></g><g
           id="g4242"
           transform="translate(127.818,303.8228)"><path
             d="M 0,0 C 0,0 -27.755,-17.031 -53.784,0"
             style="fill:none;stroke:#000000;stroke-width:15;stroke-linecap:round;stroke-linejoin:round;stroke-miterlimit:10;stroke-dasharray:none;stroke-opacity:1"
             id="path4244" /></g><g
           id="g4246"
           transform="translate(133.1403,316.6714)"><path
             d="M 0,0 C 0,0 -31.669,7.583 -38.031,38.031"
             style="fill:none;stroke:#000000;stroke-width:15;stroke-linecap:round;stroke-linejoin:round;stroke-miterlimit:10;stroke-dasharray:none;stroke-opacity:1"
             id="path4248" /></g><g
           id="g4250"
           transform="translate(164.1598,115.6587)"><path
             d="m 0,0 c 0,-10.035 -8.135,-18.171 -18.171,-18.171 -10.035,0 -18.171,8.136 -18.171,18.171 0,10.036 8.136,18.172 18.171,18.172 C -8.135,18.172 0,10.036 0,0 Z"
             style="fill:none;stroke:#000000;stroke-width:15;stroke-linecap:round;stroke-linejoin:round;stroke-miterlimit:10;stroke-dasharray:none;stroke-opacity:1"
             id="path4252" /></g><g
           id="g4254"
           transform="translate(145.9889,133.8306)"><path
             d="M 0,0 C 0,0 -17.03,27.755 0,53.784"
             style="fill:none;stroke:#000000;stroke-width:15;stroke-linecap:round;stroke-linejoin:round;stroke-miterlimit:10;stroke-dasharray:none;stroke-opacity:1"
             id="path4256" /></g><g
           id="g4258"
           transform="translate(158.8385,128.5083)"><path
             d="M 0,0 C 0,0 7.583,31.668 38.031,38.031"
             style="fill:none;stroke:#000000;stroke-width:15;stroke-linecap:round;stroke-linejoin:round;stroke-miterlimit:10;stroke-dasharray:none;stroke-opacity:1"
             id="path4260" /></g><g
           id="g4262"
           transform="translate(164.1598,115.6587)"><path
             d="M 0,0 C 0,0 27.756,17.031 53.785,0"
             style="fill:none;stroke:#000000;stroke-width:15;stroke-linecap:round;stroke-linejoin:round;stroke-miterlimit:10;stroke-dasharray:none;stroke-opacity:1"
             id="path4264" /></g><g
           id="g4266"
           transform="translate(158.8385,102.8101)"><path
             d="M 0,0 C 0,0 31.668,-7.583 38.031,-38.031"
             style="fill:none;stroke:#000000;stroke-width:15;stroke-linecap:round;stroke-linejoin:round;stroke-miterlimit:10;stroke-dasharray:none;stroke-opacity:1"
             id="path4268" /></g><g
           id="g4270"
           transform="translate(145.9889,97.4878)"><path
             d="M 0,0 C 0,0 17.031,-27.755 0,-53.784"
             style="fill:none;stroke:#000000;stroke-width:15;stroke-linecap:round;stroke-linejoin:round;stroke-miterlimit:10;stroke-dasharray:none;stroke-opacity:1"
             id="path4272" /></g><g
           id="g4274"
           transform="translate(133.1403,102.8101)"><path
             d="M 0,0 C 0,0 -7.583,-31.668 -38.031,-38.031"
             style="fill:none;stroke:#000000;stroke-width:15;stroke-linecap:round;stroke-linejoin:round;stroke-miterlimit:10;stroke-dasharray:none;stroke-opacity:1"
             id="path4276" /></g><g
           id="g4278"
           transform="translate(127.818,115.6587)"><path
             d="M 0,0 C 0,0 -27.755,-17.03 -53.784,0"
             style="fill:none;stroke:#000000;stroke-width:15;stroke-linecap:round;stroke-linejoin:round;stroke-miterlimit:10;stroke-dasharray:none;stroke-opacity:1"
             id="path4280" /></g><g
           id="g4282"
           transform="translate(133.1403,128.5083)"><path
             d="M 0,0 C 0,0 -31.669,7.583 -38.031,38.031"
             style="fill:none;stroke:#000000;stroke-width:15;stroke-linecap:round;stroke-linejoin:round;stroke-miterlimit:10;stroke-dasharray:none;stroke-opacity:1"
             id="path4284" /></g><g
           id="g4286"
           transform="translate(55.6588,385.5601)"><path
             d="M 0,0 H 3.523"
             style="fill:none;stroke:#000000;stroke-width:15;stroke-linecap:round;stroke-linejoin:round;stroke-miterlimit:10;stroke-dasharray:none;stroke-opacity:1"
             id="path4288" /></g><g
           id="g4290"
           transform="translate(229.6041,385.5601)"><path
             d="M 0,0 H 3.522"
             style="fill:none;stroke:#000000;stroke-width:15;stroke-linecap:round;stroke-linejoin:round;stroke-miterlimit:10;stroke-dasharray:none;stroke-opacity:1"
             id="path4292" /></g><g
           id="g4294"
           transform="translate(55.6588,211.2417)"><path
             d="M 0,0 H 3.523"
             style="fill:none;stroke:#000000;stroke-width:15;stroke-linecap:round;stroke-linejoin:round;stroke-miterlimit:10;stroke-dasharray:none;stroke-opacity:1"
             id="path4296" /></g><g
           id="g4298"
           transform="translate(229.6041,211.2417)"><path
             d="M 0,0 H 3.522"
             style="fill:none;stroke:#000000;stroke-width:15;stroke-linecap:round;stroke-linejoin:round;stroke-miterlimit:10;stroke-dasharray:none;stroke-opacity:1"
             id="path4300" /></g><g
           id="g4302"
           transform="translate(55.6588,36.9243)"><path
             d="M 0,0 H 3.523"
             style="fill:none;stroke:#000000;stroke-width:15;stroke-linecap:round;stroke-linejoin:round;stroke-miterlimit:10;stroke-dasharray:none;stroke-opacity:1"
             id="path4304" /></g><g
           id="g4306"
           transform="translate(229.6041,36.9243)"><path
             d="M 0,0 H 3.522"
             style="fill:none;stroke:#000000;stroke-width:15;stroke-linecap:round;stroke-linejoin:round;stroke-miterlimit:10;stroke-dasharray:none;stroke-opacity:1"
             id="path4308" /></g><g
           id="g4310"
           transform="translate(433.6774,171.5503)"><path
             d="m 0,0 v 24.296 c 0,2.33 -1.243,4.483 -3.262,5.648 l -21.04,12.148 c -2.018,1.165 -4.505,1.165 -6.522,0 L -51.865,29.944 c -2.018,-1.165 -3.261,-3.318 -3.261,-5.648 V 0 c 0,-2.33 1.243,-4.483 3.261,-5.648 l 21.041,-12.149 c 2.017,-1.165 4.504,-1.165 6.522,0 l 21.04,12.149 C -1.243,-4.483 0,-2.33 0,0 Z"
             style="fill:none;stroke:#000000;stroke-width:15;stroke-linecap:round;stroke-linejoin:round;stroke-miterlimit:10;stroke-dasharray:none;stroke-opacity:1"
             id="path4312" /></g><g
           id="g4314"
           transform="translate(406.1139,190.4956)"><path
             d="M 0,0 V -13.595"
             style="fill:none;stroke:#000000;stroke-width:15;stroke-linecap:round;stroke-linejoin:round;stroke-miterlimit:10;stroke-dasharray:none;stroke-opacity:1"
             id="path4316" /></g><g
           id="g4318"
           transform="translate(412.9117,183.6978)"><path
             d="M 0,0 H -13.595"
             style="fill:none;stroke:#000000;stroke-width:15;stroke-linecap:round;stroke-linejoin:round;stroke-miterlimit:10;stroke-dasharray:none;stroke-opacity:1"
             id="path4320" /></g><g
           id="g4322"
           transform="translate(216.9411,103.7251)"><path
             d="m 0,0 c 0.648,3.884 1.004,7.866 1.004,11.934 0,39.74 -32.216,71.956 -71.956,71.956 -39.739,0 -71.955,-32.216 -71.955,-71.956 0,-39.74 32.216,-71.955 71.955,-71.955 25.138,0 47.253,12.899 60.119,32.43"
             style="fill:none;stroke:#000000;stroke-width:15;stroke-linecap:round;stroke-linejoin:round;stroke-miterlimit:10;stroke-dasharray:none;stroke-opacity:1"
             id="path4324" /></g><g
           id="g4326"
           transform="translate(479.6246,190.8853)"><path
             d="m 0,0 c -3.615,37.42 -35.143,66.677 -73.511,66.677 -40.794,0 -73.863,-33.071 -73.863,-73.864 0,-40.794 33.069,-73.864 73.863,-73.864 33.2,0 61.282,21.905 70.587,52.051"
             style="fill:none;stroke:#000000;stroke-width:15;stroke-linecap:round;stroke-linejoin:round;stroke-miterlimit:10;stroke-dasharray:none;stroke-opacity:1"
             id="path4328" /></g><g
           id="g4330"
           transform="translate(466.6285,226.0386)"><path
             d="m 0,0 c 0.526,0.387 1.038,0.804 1.515,1.28 l 8.826,8.825 c 5.083,5.084 5.083,13.327 0,18.41 -5.084,5.083 -13.325,5.083 -18.408,0 l -8.827,-8.827 c -0.475,-0.475 -0.892,-0.987 -1.279,-1.512"
             style="fill:none;stroke:#000000;stroke-width:15;stroke-linecap:round;stroke-linejoin:round;stroke-miterlimit:10;stroke-dasharray:none;stroke-opacity:1"
             id="path4332" /></g><g
           id="g4334"
           transform="translate(448.4567,123.1802)"><path
             d="m 0,0 c 0.387,-0.525 0.803,-1.036 1.278,-1.511 l 8.826,-8.826 c 5.084,-5.084 13.325,-5.084 18.409,0 5.083,5.083 5.083,13.324 0,18.408 l -8.826,8.826 c -0.476,0.475 -0.987,0.891 -1.511,1.278"
             style="fill:none;stroke:#000000;stroke-width:15;stroke-linecap:round;stroke-linejoin:round;stroke-miterlimit:10;stroke-dasharray:none;stroke-opacity:1"
             id="path4336" /></g><g
           id="g4338"
           transform="translate(345.6041,141.3609)"><path
             d="m 0,0 c -0.528,-0.388 -1.041,-0.806 -1.52,-1.283 l -8.825,-8.826 c -5.083,-5.084 -5.083,-13.326 0,-18.409 5.083,-5.084 13.325,-5.084 18.408,0 l 8.827,8.827 c 0.477,0.477 0.895,0.99 1.283,1.518"
             style="fill:none;stroke:#000000;stroke-width:15;stroke-linecap:round;stroke-linejoin:round;stroke-miterlimit:10;stroke-dasharray:none;stroke-opacity:1"
             id="path4340" /></g><g
           id="g4342"
           transform="translate(363.777,244.2085)"><path
             d="m 0,0 c -0.388,0.527 -0.806,1.041 -1.283,1.519 l -8.826,8.826 c -5.083,5.083 -13.326,5.083 -18.409,0 -5.083,-5.083 -5.083,-13.325 0,-18.409 l 8.826,-8.826 c 0.478,-0.477 0.991,-0.895 1.519,-1.284"
             style="fill:none;stroke:#000000;stroke-width:15;stroke-linecap:round;stroke-linejoin:round;stroke-miterlimit:10;stroke-dasharray:none;stroke-opacity:1"
             id="path4344" /></g><g
           id="g4346"
           transform="translate(433.5055,253.3101)"><path
             d="m 0,0 v 20.953 c 0,3.582 -2.904,6.486 -6.487,6.486 h -41.809 c -3.582,0 -6.487,-2.904 -6.487,-6.486 v -20.97"
             style="fill:none;stroke:#000000;stroke-width:15;stroke-linecap:round;stroke-linejoin:round;stroke-miterlimit:10;stroke-dasharray:none;stroke-opacity:1"
             id="path4348" /></g><g
           id="g4350"
           transform="translate(31.2184,334.3853)"><path
             d="m 0,0 v -312.849 c 0,-7.752 6.284,-14.037 14.037,-14.037 h 201.468 c 7.752,0 14.036,6.285 14.036,14.037 V 63.56 c 0,7.752 -6.284,14.037 -14.036,14.037 H 14.037 C 6.284,77.597 0,71.312 0,63.56 V 29"
             style="fill:none;stroke:#000000;stroke-width:15;stroke-linecap:round;stroke-linejoin:round;stroke-miterlimit:10;stroke-dasharray:none;stroke-opacity:1"
             id="path4352" /></g></g></g></g></svg>
